<?xml version="1.0" encoding="UTF-8"?>
<svg xmlns="http://www.w3.org/2000/svg" xmlns:xlink="http://www.w3.org/1999/xlink" width="425.2pt" height="130.5pt" viewBox="0 0 425.2 130.5" version="1.1">
<defs>
<clipPath id="clip1">
  <path d="M 0 2 L 425.199219 2 L 425.199219 130.5 L 0 130.5 Z M 0 2 "/>
</clipPath>
</defs>
<g id="surface1">
<g clip-path="url(#clip1)" clip-rule="nonzero">
<path style=" stroke:none;fill-rule:evenodd;fill:rgb(0%,0%,0%);fill-opacity:1;" d="M 300.164063 107.300781 L 300.164063 91.0625 C 300.175781 91.050781 346.480469 91.101563 351.3125 91.199219 C 358.621094 91.097656 358.324219 107.371094 351.3125 107.300781 Z M 194.121094 107.324219 L 194.121094 92.066406 L 206.394531 92.066406 L 206.394531 107.300781 Z M 308.664063 69.316406 C 302.03125 70.105469 299.9375 76.050781 300.183594 84.507813 L 345.132813 84.660156 C 354.40625 84.019531 377.539063 72.714844 379.132813 69.316406 C 356.695313 69.316406 331.105469 69.316406 308.664063 69.316406 Z M 308.664063 130.121094 C 302.03125 129.332031 299.9375 123.386719 300.183594 114.929688 L 345.132813 114.777344 C 354.40625 115.417969 377.539063 126.722656 379.132813 130.121094 C 356.695313 130.121094 331.105469 130.121094 308.664063 130.121094 Z M 153.40625 69.210938 L 166.636719 69.210938 L 166.636719 130.15625 L 153.40625 130.15625 Z M 194.121094 130.152344 L 194.121094 114.921875 L 253.789063 114.921875 L 230.460938 99.722656 L 253.789063 84.523438 L 194.121094 84.523438 L 194.121094 69.292969 C 218.289063 69.292969 241.703125 69.210938 265.871094 69.210938 C 276.347656 70.972656 275.203125 83.234375 272.128906 87.066406 L 254.257813 99.980469 L 272.128906 112.378906 C 275.203125 114.941406 276.347656 128.472656 265.871094 130.234375 Z M 72.707031 126.066406 L 63.386719 59.671875 L 0.03125 59.671875 C 5.851563 55.550781 12.289063 51.460938 17.441406 49.105469 C 28.78125 43.917969 37.222656 43.523438 39.847656 43.476563 C 50.691406 43.476563 62.726563 43.476563 73.824219 43.476563 C 75.804688 43.964844 77.058594 45.058594 77.640625 47.25 L 84.257813 96.800781 L 153.074219 5.46875 C 154.109375 4.09375 159.277344 -0.0625 162.839844 5.460938 L 167.59375 43.476563 C 253.46875 43.476563 339.347656 43.476563 425.226563 43.476563 C 419.40625 47.59375 412.96875 51.6875 407.816406 54.042969 C 396.476563 59.226563 388.039063 59.625 385.410156 59.671875 C 310.28125 59.671875 235.152344 59.671875 160.023438 59.671875 C 155.558594 59.671875 154.234375 57.480469 153.40625 54.867188 L 150.539063 35.789063 C 126.855469 66.949219 103.011719 98.75 79.324219 129.910156 C 77.554688 130.472656 73.695313 130.070313 72.707031 126.066406 Z M 72.707031 126.066406 "/>
</g>
</g>
</svg>
